# xmcd CD database file
#
# Track frame offsets:
#	150
#	16293
#	32417
#
# Disc length: 644 seconds
#
# Revision: 1
# Processed by: cddbd v1.5.1PL0 Copyright (c) Steve Scherf et al.
# Submitted via: CDex 1.51
#
DISCID=15028203
DTITLE=遠藤正明 - シージェッター海斗
DYEAR=1900
DGENRE=misc
TTITLE0=シージェッター海斗
TTITLE1=シージェッター海斗 <Insturmental>
TTITLE2=シージェッター海斗 <Off Vocal>
EXTD=
EXTT0=
EXTT1=
EXTT2=
PLAYORDER=
